<svg id="Component_1_1" data-name="Component 1 – 1" xmlns="http://www.w3.org/2000/svg" xmlns:xlink="http://www.w3.org/1999/xlink" width="263" height="96.775" viewBox="0 0 263 96.775">
  <defs>
    <linearGradient id="linear-gradient" y1="0.5" x2="1" y2="0.5" gradientUnits="objectBoundingBox">
      <stop offset="0" stop-color="#fff" stop-opacity="0.4"/>
      <stop offset="0.999" stop-color="#fff" stop-opacity="0.102"/>
    </linearGradient>
  </defs>
  <g id="Group_14" data-name="Group 14" transform="translate(-161.359 -279.494)">
    <g id="Group_11" data-name="Group 11" transform="translate(161.359 287)">
      <g id="Group_5" data-name="Group 5" transform="translate(26.72)">
        <path id="Path_1" data-name="Path 1" d="M244.8,287H227.84l-8.481,14.69,8.481,14.69H244.8l8.481-14.69Z" transform="translate(-219.359 -287)" fill="#fa7300"/>
        <path id="Path_2" data-name="Path 2" d="M249.923,302.36a22.3,22.3,0,0,1,3.464.272L245.516,289h-15.9l-7.95,13.768,7.751,13.424A22.115,22.115,0,0,1,249.923,302.36Z" transform="translate(-220.604 -288.079)" fill="url(#linear-gradient)"/>
      </g>
      <g id="Group_6" data-name="Group 6" transform="translate(26.72 59.889)">
        <path id="Path_3" data-name="Path 3" d="M244.8,417H227.84l-8.481,14.69,8.481,14.69H244.8l8.481-14.69Z" transform="translate(-219.359 -417)" fill="#4660b5"/>
        <path id="Path_4" data-name="Path 4" d="M249.923,432.36a22.3,22.3,0,0,1,3.464.272L245.516,419h-15.9l-7.95,13.768,7.751,13.424A22.115,22.115,0,0,1,249.923,432.36Z" transform="translate(-220.604 -418.079)" fill="url(#linear-gradient)"/>
      </g>
      <g id="Group_7" data-name="Group 7" transform="translate(0 45.147)">
        <path id="Path_5" data-name="Path 5" d="M186.8,385H169.84l-8.481,14.69,8.481,14.69H186.8l8.481-14.69Z" transform="translate(-161.359 -385)" fill="#7647a5"/>
        <path id="Path_6" data-name="Path 6" d="M191.923,400.36a22.3,22.3,0,0,1,3.464.272L187.516,387h-15.9l-7.95,13.768,7.751,13.424A22.115,22.115,0,0,1,191.923,400.36Z" transform="translate(-162.604 -386.079)" fill="url(#linear-gradient)"/>
      </g>
      <g id="Group_8" data-name="Group 8" transform="translate(52.979 45.147)">
        <path id="Path_7" data-name="Path 7" d="M301.8,385H284.84l-8.481,14.69,8.481,14.69H301.8l8.481-14.69Z" transform="translate(-276.359 -385)" fill="#2ba731"/>
        <path id="Path_8" data-name="Path 8" d="M306.923,400.36a22.3,22.3,0,0,1,3.464.272L302.516,387h-15.9l-7.95,13.768,7.751,13.424A22.115,22.115,0,0,1,306.923,400.36Z" transform="translate(-277.604 -386.079)" fill="url(#linear-gradient)"/>
      </g>
      <g id="Group_9" data-name="Group 9" transform="translate(0 14.742)">
        <path id="Path_9" data-name="Path 9" d="M186.8,319H169.84l-8.481,14.69,8.481,14.69H186.8l8.481-14.69Z" transform="translate(-161.359 -319)" fill="#de0000"/>
        <path id="Path_10" data-name="Path 10" d="M191.923,334.36a22.3,22.3,0,0,1,3.464.272L187.516,321h-15.9l-7.95,13.768,7.751,13.424A22.115,22.115,0,0,1,191.923,334.36Z" transform="translate(-162.604 -320.079)" fill="url(#linear-gradient)"/>
      </g>
      <g id="Group_10" data-name="Group 10" transform="translate(52.979 14.742)">
        <path id="Path_11" data-name="Path 11" d="M301.8,319H284.84l-8.481,14.69,8.481,14.69H301.8l8.481-14.69Z" transform="translate(-276.359 -319)" fill="#fcc800"/>
        <path id="Path_12" data-name="Path 12" d="M306.923,334.36a22.3,22.3,0,0,1,3.464.272L302.516,321h-15.9l-7.95,13.768,7.751,13.424A22.115,22.115,0,0,1,306.923,334.36Z" transform="translate(-277.604 -320.079)" fill="url(#linear-gradient)"/>
      </g>
    </g>
  </g>
  <text id="Rate_it" data-name="Rate it" transform="translate(263 77)" fill="#ff6100" font-size="60" font-family="Noteworthy-Light, Noteworthy" font-weight="300"><tspan x="-153" y="0">Rate it</tspan></text>
</svg>
