<?xml version="1.0" standalone="no"?>
<!DOCTYPE svg PUBLIC "-//W3C//DTD SVG 20010904//EN"
 "http://www.w3.org/TR/2001/REC-SVG-20010904/DTD/svg10.dtd">
<svg version="1.0" xmlns="http://www.w3.org/2000/svg"
 width="1279.000000pt" height="1280.000000pt" viewBox="0 0 1279.000000 1280.000000"
 preserveAspectRatio="xMidYMid meet">
<metadata>
Created by potrace 1.15, written by Peter Selinger 2001-2017
</metadata>
<g transform="translate(0.000000,1280.000000) scale(0.100000,-0.100000)"
fill="white" stroke="none">
<path d="M4845 12794 c-16 -2 -77 -9 -135 -15 -448 -47 -867 -209 -1149 -444
-116 -96 -163 -155 -204 -255 -121 -293 -110 -483 38 -618 65 -60 143 -99 340
-172 323 -120 427 -211 470 -415 62 -292 -73 -512 -375 -615 -153 -52 -80 -50
-1996 -50 l-1785 0 -25 -25 -24 -25 3 -1792 c3 -1788 3 -1793 24 -1878 48
-194 112 -319 217 -425 119 -121 241 -170 421 -169 132 1 222 21 315 70 166
87 239 192 360 519 28 77 65 166 82 198 39 73 103 132 160 148 86 23 241 -6
392 -75 57 -26 85 -48 144 -111 296 -317 471 -847 473 -1432 1 -198 -4 -251
-52 -533 -76 -445 -192 -736 -395 -988 -85 -107 -144 -153 -244 -191 -161 -63
-297 -78 -375 -42 -86 39 -131 112 -226 368 -92 248 -169 369 -286 449 -116
79 -243 110 -423 102 -265 -13 -447 -167 -556 -473 l-29 -80 -3 -1887 -2
-1887 22 -26 23 -26 1310 10 c2413 19 2337 17 2500 68 271 85 443 252 489 476
20 96 20 161 1 272 -24 134 -69 222 -163 314 -89 89 -178 137 -405 221 -157
57 -226 90 -279 132 -107 84 -110 247 -8 490 28 68 42 88 117 157 299 280 786
453 1346 477 79 4 198 2 268 -5 139 -12 441 -60 577 -92 357 -84 641 -226 839
-422 61 -59 78 -85 106 -152 71 -168 89 -310 50 -395 -41 -89 -106 -130 -349
-220 -343 -128 -473 -234 -540 -443 -35 -109 -43 -271 -20 -371 61 -260 272
-429 619 -497 94 -18 168 -19 1871 -19 1732 0 1774 0 1797 19 l24 19 5 1879 5
1878 33 81 c41 104 117 211 180 257 85 63 134 79 257 84 186 8 297 -30 399
-137 66 -69 99 -133 187 -364 82 -213 109 -264 171 -328 131 -135 338 -142
621 -23 78 33 99 48 171 120 199 201 362 508 446 843 36 143 96 489 110 637
32 345 -22 770 -140 1110 -46 132 -142 326 -217 439 -36 55 -109 144 -162 198
-91 94 -101 100 -192 137 -226 92 -386 105 -511 43 -119 -58 -178 -146 -273
-407 -71 -194 -127 -299 -194 -364 -94 -94 -197 -131 -359 -131 -253 0 -404
132 -499 436 l-28 89 -5 1828 -5 1829 -24 19 c-23 19 -67 19 -1877 19 l-1853
0 -85 31 c-166 60 -264 138 -321 254 -102 208 -47 490 119 615 70 52 156 94
321 155 271 101 365 165 421 287 54 121 35 298 -56 510 -36 86 -47 100 -133
184 -201 194 -481 342 -812 429 -154 41 -495 101 -656 115 -106 9 -326 11
-394 4z"/>
</g>
</svg>
